# xmcd CD database file
#
# Track frame offsets:
#	150
#	15188
#	30405
#	42623
#	57305
#	70808
#	86908
#	101835
#	117413
#	131945
#	144460
#	161238
#	172653
#	186025
#	199070
#	210428
#
# Disc length: 2924 seconds
#
# Revision: 0
# Processed by: cddbd v1.5.1PL0 Copyright (c) Steve Scherf et al.
# Submitted via: CDex 1.51
#
DISCID=e10b6a10
DTITLE=Glenn Miller - Glenn Miller Compilation
DYEAR=1900
DGENRE=Jazz
TTITLE0=Moonlight Serenade
TTITLE1=Chattanooga Choo Choo
TTITLE2=Serenade in Blue
TTITLE3=Pennsylvania 6-5000
TTITLE4=Rhapsody in Blue
TTITLE5=In the Mood
TTITLE6=In a Sentimental Mood
TTITLE7=St. Louis Blues
TTITLE8=My Prayer
TTITLE9=Johnson Rag
TTITLE10=Medley: My Melan - Choly Baby - Moon Love - Stomping at the Savoy - Blue Moon
TTITLE11=The Jumpin' Jive
TTITLE12=I Know Why
TTITLE13=The Lamplighter's Serenade
TTITLE14=The Woodpecker Song
TTITLE15=Anchors Aweigh
EXTD=
EXTT0=
EXTT1=
EXTT2=
EXTT3=
EXTT4=
EXTT5=
EXTT6=
EXTT7=
EXTT8=
EXTT9=
EXTT10=
EXTT11=
EXTT12=
EXTT13=
EXTT14=
EXTT15=
PLAYORDER=
